{"title":"El.Secreto.de.sus.Ojos.2009.DVDRIP.XviD-ZEKTORM","uid":5332807,"size":747961095,"categoryP":"video","categoryS":"movies","magnet":"?xt=urn:btih:30aed9f4193e0fa8a45ad8626214b3325e348b38&amp;dn=El.Secreto.de.sus.Ojos.2009.DVDRIP.XviD-ZEKTORM&amp;tr=udp%3A%2F%2Ftracker.openbittorrent.com%3A80&amp;tr=udp%3A%2F%2Fopen.demonii.com%3A1337&amp;tr=udp%3A%2F%2Ftracker.coppersurfer.tk%3A6969&amp;tr=udp%3A%2F%2Fexodus.desync.com%3A6969","seeders":106,"leechers":15,"uploader":"blowley","files":6,"time":1265223794,"description":"Title                            : El secreto de sus ojos\nAlso Known As                    : The Secret in Their Eyes\nYear                             : 2009\nGenre                            : Crime | Drama | Mystery | Romance | Thriller\niMDB URL                         : http://www.imdb.com/title/tt1305806/\nAwards                           : Nominated for Oscar. Another 14 wins &amp; 10 nominations\n\nComplete name                    : El.secreto.de.sus.ojos.2009.DVDRIP.XviD-ZEKTORM.avi\nFormat                           : AVI\nFile size                        : 700 MiB\nDuration                         : 2h 9mn\nOverall bit rate                 : 756 Kbps\nSubtitles                        : English, Spanish (Format: VobSub/srt)\n\nVideo\nFormat                           : MPEG-4 Visual\nFormat profile                   : Streaming Video@L1\nCodec ID/Hint                    : XviD\nDuration                         : 2h 9mn\nBit rate                         : 639 Kbps\nWidth                            : 720 pixels\nHeight                           : 304 pixels\nDisplay aspect ratio             : 2.35\nFrame rate                       : 23.976 fps\nResolution                       : 24 bits\nColorimetry                      : 4:2:0\nScan type                        : Progressive\nBits/(Pixel*Frame)               : 0.122\nStream size                      : 592 MiB (84%)\nWriting library                  : XviD\n\nAudio\nFormat                           : MPEG Audio\nFormat version                   : Version 1\nFormat profile                   : Layer 3\nCodec ID                         : 55\nCodec ID/Hint                    : MP3\nDuration                         : 2h 9mn\nBit rate mode                    : Variable\nBit rate                         : 105 Kbps\nMinimum bit rate                 : 128 Kbps\nChannel(s)                       : 2 channels\nSampling rate                    : 48.0 KHz\nResolution                       : 16 bits\nStream size                      : 96.9 MiB (14%)\nWriting library                  : LAME3.98r\nEncoding settings                : ABR\n","torrent":{"xt":"urn:btih:30aed9f4193e0fa8a45ad8626214b3325e348b38","amp;dn":"El.Secreto.de.sus.Ojos.2009.DVDRIP.XviD-ZEKTORM","amp;tr":["udp%3A%2F%2Ftracker.openbittorrent.com%3A80","udp%3A%2F%2Fopen.demonii.com%3A1337","udp%3A%2F%2Ftracker.coppersurfer.tk%3A6969","udp%3A%2F%2Fexodus.desync.com%3A6969"],"infoHash":"30aed9f4193e0fa8a45ad8626214b3325e348b38","infoHashBuffer":{"type":"Buffer","data":[48,174,217,244,25,62,15,168,164,90,216,98,98,20,179,50,94,52,139,56]},"announce":[],"urlList":[]}}